<svg width="200" height="22" viewBox="0 0 200 22" fill="none" xmlns="http://www.w3.org/2000/svg">
<path d="M4.7 3.4H8V21.6H12V3.4H16.6C17.1 3.4 17.3 3.7 17.3 4.1V5.3H17.4V21.4H21.3V14.3C21.3 13.6 21.3 12.9 21.5 12.3C22.1 10.4 23.7 9.1 25.7 9.1C27.7 9.1 28.2 10.4 28.2 12.3V19.4C28.2 20.9 28.8 21.5 30.2 21.5H33.9V18.2H32.7C32.2 18.2 32 17.9 32 17.5V11.5C32 7.4 30.1 5.6 26.6 5.6C23.9 5.6 22 7.2 21.3 8.7H21.2C21.2 8.7 21.3 8.2 21.3 7.4V2C21.3 0.6 20.6 0 19.2 0H2.4C1 0 0.5 0.5 0.5 2V5.4H4V4.1C4 3.6 4.2 3.4 4.7 3.4Z" fill="white"/>
<path fill-rule="evenodd" clip-rule="evenodd" d="M51.1 13.8C51.1 9.1 47.3 5.7 42.6 5.7C37.9 5.7 34.2 9.1 34.1 13.8C34.1 18.6 37.9 21.9 42.6 21.9C47.3 21.9 51.1 18.6 51.1 13.8ZM47.2 13.9C47.2 16.8 45.1 18.7 42.6 18.7C40.2 18.7 38.1 16.7 38 13.9C38 11.1 40.1 9.1 42.6 9.1C45.1 9.1 47.2 11 47.2 13.9Z" fill="white"/>
<path d="M52.7 9.4C53.2 9.4 53.4 9.6 53.4 10.1H53.6V21.7H57.4V14.9C57.4 14.2 57.4 13.6 57.6 13C58 11 59.4 9.4 61.3 9.4C63.2 9.4 63.4 10.8 63.4 12.5V21.7H67.3V14.9C67.3 14.1 67.3 13.5 67.5 12.9C67.9 10.9 69.3 9.3 71.2 9.3C73 9.3 73.3 10.6 73.3 12.4V19.6C73.3 21.1 73.9 21.7 75.4 21.7H79V18.4H77.9C77.4 18.4 77.2 18.1 77.2 17.7V11.7C77.2 7.6 75.3 5.8 72.1 5.8C69.6 5.8 67.6 7.3 66.8 9H66.7C66.1 6.9 64.5 5.8 62.2 5.8C59.8 5.8 57.9 7.5 57.2 9H57.1V7.8C57.1 6.7 56.5 6.1 55.1 6.1H51.5V9.4H52.7Z" fill="white"/>
<path fill-rule="evenodd" clip-rule="evenodd" d="M89.7 11.9H89.2C86.7 11.9 80 12.3 79.8 17.2C79.8 20.3 82.3 22 85.1 22C88.6 22 89.8 19.3 89.8 19.3H89.9V20C89.9 20.9 90.5 21.7 91.9 21.7H95.4V18.4H94.2C93.7 18.4 93.5 18.1 93.5 17.7V11.9C93.5 8.4 92 5.7 86.8 5.7C85.2 5.7 81.1 6 81.1 8.9V10.6H84.7V9.8C84.7 9 86.1 8.8 86.8 8.8C88.8 8.8 89.7 9.6 89.7 11.8V11.9ZM89.7 14.9C89.7 16.8 88.3 19 86.2 19C84.6 19 83.9 18 83.8 16.9C83.8 14.8 87 14.5 89 14.5H89.7V14.9Z" fill="white"/>
<path d="M102.9 19C100.3 19 98.3 16.7 98.3 16.7L96.4 19.1C96.4 19.1 98.5 21.9 102.8 21.9C106.2 21.9 108.8 20.1 108.8 17.2C108.8 14.1036 105.892 13.0283 103.54 12.1583C101.942 11.5672 100.6 11.0709 100.6 10.1C100.6 9.2 101.5 8.7 102.9 8.7C103.7 8.7 104.8 9.1 104.8 9.8V10.6H108.2V9C108.2 6.5 104.9 5.8 102.8 5.8C99.6 5.8 96.8 7.2 96.8 10.3C96.8 13.306 99.7639 14.5048 102.128 15.461C103.696 16.0952 105 16.6227 105 17.5C105 18.5 104.1 19 102.9 19Z" fill="white"/>
<path fill-rule="evenodd" clip-rule="evenodd" d="M111.6 20.4H109.3V21.6H115.6V20.4H113L115.3 14.3H124.3L126.6 20.4H124V21.6H130.3V20.4H128L120.5 0.3H119.1L111.6 20.4ZM120.1 3.1L123.8 13H115.7L119.4 3.1C119.6 2.5 119.7 1.9 119.7 1.9H119.8C119.8 1.9 119.9 2.6 120.1 3.1Z" fill="white"/>
<path d="M133.9 20.4H131.5V21.6H137.6V20.4H135.2V15C135.2 11.9 136.6 7.6 140.2 7.6C140.5 7.6 140.9 7.7 140.9 7.7V6.4C140.9 6.4 140.5 6.3 140 6.3C137.6 6.3 136 8.1 135.2 10.4H135.1C135.1 10.4 135.2 9.9 135.2 9.2V8.1C135.2 6.9 134.6 6.4 133.4 6.4H131V7.6H133.2C133.7 7.6 133.9 7.8 133.9 8.3V20.4Z" fill="white"/>
<path d="M154.2 9.2C154.2 6.7 150.5 6 148.9 6C144.7 6 141.1 9.2 141.2 14.1C141.2 18.9 144.7 22 149 22C152.7 22 154.7 19.6 154.7 19.6L154 18.5C154 18.5 152.2 20.7 148.9 20.7C145.3 20.7 142.4 18 142.4 14C142.4 9.9 145.3 7.3 148.9 7.3C150.4 7.3 153 8 153 9.5V10.7H154.2V9.2Z" fill="white"/>
<path d="M158.3 20.4H155.6V21.5H162.3V20.3H159.6V14.1C159.6 10.1 162.5 7.2 166 7.2C169.4 7.2 169.7 9.7 169.7 12.3V21.5H173.7V20.3H171V11.9C171 8.3 170 6 166 6C162.2 6 160.1 8.9 159.6 10.3H159.5C159.5 10.3 159.6 9.8 159.6 9.1V0.3H155.4V1.5H158.3V20.4Z" fill="white"/>
<path fill-rule="evenodd" clip-rule="evenodd" d="M188 12.9C188 9.3 185.9 6 181.8 6C177.9 6 174.4 8.9 174.4 14C174.4 18.8 177.9 21.9 182.2 21.9C185.5 21.9 187.6 19.8 187.6 19.8L186.9 18.7C186.9 18.7 185.1 20.6 182.2 20.6C178.7 20.6 175.7 18.1 175.7 13.7H187.9C187.9 13.7 188 13.2 188 12.9ZM181.7 7.2C184.2 7.2 186.4 8.9 186.6 12.6H175.8C176.3 9 178.9 7.2 181.7 7.2Z" fill="white"/>
<path d="M192.5 20.4H190.1V21.6H196.2V20.4H193.8V15C193.8 11.9 195.2 7.6 198.8 7.6C199.1 7.6 199.5 7.7 199.5 7.7V6.4C199.5 6.4 199.1 6.3 198.6 6.3C196.2 6.3 194.6 8.1 193.8 10.4H193.7C193.7 10.4 193.8 9.9 193.8 9.2V8.1C193.8 6.9 193.2 6.4 192 6.4H189.6V7.6H191.8C192.3 7.6 192.5 7.8 192.5 8.3V20.4Z" fill="white"/>
</svg>
